<svg xmlns="http://www.w3.org/2000/svg" width="1920" height="1080" fill="none"><g opacity=".08"><path fill="#fff" d="M1920 .001H0V1080h1920V.001Z"/><path fill="#000" fill-rule="evenodd" d="M0 .001h17.212c72.285 74.337 212.94 176.939 231.406 253.664 15.959 66.536-44.115 116.643-44.956 187.53-1.05 89.037-20.49 132.596-59.041 218.03-7.665 17.094-15.329 34.151-22.859 51.284-12.615 29.758-16.02 47.717-22.725 77.436C89.918 828.756 46.132 864.159 0 898.348V870.32c64.747-60.109 40.013-77.794 66.907-151.614 19.036-52.067 46.561-102.136 64.125-154.752 15.9-50.419 21.75-83.94 26.07-135.267 10.035-119.464 65.385-131.653-28.021-255.276C92.422 124.834 42.997 76.959 0 29.325V.001Zm105.382 0h54.031c2.581 1.646 5.145 3.253 7.875 4.782 132.99 74.966 288.9 104.486 271.275 232.615-11.715 84.959-107.49 145.106-113.415 224.028-1.59 21.134-2.504 41.913-4.529 63.086-8.281 85.939-18.391 127.064-57.706 210.656-29.07 64.378-22.86 73.986-108.87 123.54C98.138 890.936 45.518 921.247 0 953.352v-18.62c31.853-22.344 66.847-44.421 103.928-68.024 96.944-61.71 84.27-89.47 119.954-165.885 18.465-39.559 34.365-73.591 43.35-114.522 9.556-47.673 14.565-86.999 19.8-134.597 10.59-96.141 145.32-163.771 67.89-274.805C307.237 108.564 191.678 59.749 105.382.001Zm229.605 0h143.445c31.98 13.094 59.521 32.894 84.196 67.982 58.275 82.804 32.834 176.784-40.215 253.866-100.86 106.447-99.044 96.918-94.38 222.969 2.85 64.851 11.161 212.775-49.695 265.473-36.45 31.522-151.875 70.963-208.62 96.604C106.013 935.715 46.553 970.691 0 1009.78v-21.69c60.788-46.024 139.747-85.786 222.968-123.651 122.685-55.793 124.635-78.849 152.16-165.183 5.294-16.546 8.925-31.715 11.64-48.461 7.889-62.263 2.504-121.775 4.875-183.492 4.185-106.642 182.76-161.921 150.839-316.946C527.018 75.003 468.188 35.716 349.057 3.761c-4.8-1.294-9.464-2.55-14.07-3.76Zm295.816 0h52.965c62.939 108.599 27.81 215.046-67.411 314.945-105.944 111.114-106.919 113.825-87.825 241.993 1.621 11.167 3.57 22.265 5.596 33.437 9.194 48.536 40.829 185.926 12.959 226.265-27.735 40.229-137.52 60.808-202.965 79.004C204.638 934.344 66.847 992.409 0 1071.17v-22.23c68.453-68.453 187.357-121.338 310.313-160.865 185.056-59.513 198.855-60.726 199.905-187.758.06-8.548-.286-16.861-.705-25.41-4.245-56.26-34.156-202.424-16.02-247.039 28.079-69.281 138.419-131.423 169.289-221.601 21.615-63.24 19.95-144.32-31.979-206.266Zm148.394 0h45.435c1.815 16.426 2.161 33.795 1.396 52.222-5.295 125.19-68.175 190.86-164.49 299.148-65.806 74.025-59.325 113.664-40.635 192.976 12.06 51.244 31.844 102.176 52.065 152.558 15.33 37.323 65.31 130.832 32.13 162.986-27.885 27.014-152.37 35.242-203.46 42.026-183.24 24.427-379.8 78.063-458.355 178.083h-16.11c2.31-2.98 4.74-5.89 7.26-8.71 97.725-109.661 287.371-152.126 483.736-183.962 165.254-26.813 147.689-42.456 127.335-130.707-8.85-38.507-19.246-76.576-30.871-114.848-19.109-63.005-55.484-176.389-21.75-236.925 26.896-48.183 99.105-109.934 136.336-162C776.828 176.234 798.772 81.154 779.197.001Zm135.901 0h45.315c-1.74 19.443-6.765 40.065-15.27 62.023-38.821 100.567-115.906 184.585-190.561 276.682-58.335 72.065-56.939 118.094-38.264 195.565 4.109 17.058 9.479 32.973 16.244 49.755 34.23 77.865 95.131 143.066 131.46 216.071 22.23 55.827-21.96 96.8-122.475 106.996-100.154 10.153-186.24 8.112-292.875 23.52-137.879 19.92-300.15 71.277-357.916 149.387h-15.27c33.66-39.61 92.07-75.44 145.32-97.513 151.321-62.614 288.015-65.121 460.936-80.723 201.375-18.193 135.494-91.474 90.27-170.673-3.42-5.998-6.766-11.997-10.11-17.998-52.485-93.898-130.14-237.632-68.025-333.063 36.044-55.322 97.229-111.659 137.595-170.042 36.931-53.437 78.06-137.693 83.626-209.987Zm127.922 0h35.25c-1.19 50.414-24.87 102.447-70.4 154.396-55.482 63.318-182.473 185.996-197.518 252.494-19.32 85.431 26.476 178.9 94.86 254.65 31.844 34.425 113.268 112.208 108.318 149.573-8.85 32.382-86.854 94.178-137.659 108.606-111.119 31.599-383.025-19.609-612.06 75.55-35.61 14.82-108.72 54.65-111.09 84.73h-21.75c7.666-13.65 20.13-27.77 31.635-37.13 112.921-91.982 329.971-113.821 514.321-117.117 95.22-1.722 174.675 4.86 233.79-43.951l16.455-13.605c65.791-55.551 40.14-79.08-8.85-136.985-38.204-45.128-77.444-85.118-106.169-132.951-40.92-73.518-61.755-164.434-13.515-238.067 33.105-50.495 94.155-114.247 136.2-165.019C990.382 127.971 1038.13 64.77 1043.02.001Zm100.14 0h32.43c-.08 17.013-1.83 34.892-5.37 53.908-25.86 136.948-151.32 181.489-220.052 295.776-25.021 41.518-28.65 82.532-22.65 125.896 24.044 127.304 148.602 175.571 210.912 280.724 40.5 68.259-46.08 101.269-126.51 144.044-85.663 45.95-90.897 53.443-213.973 50.456-158.1-3.839-356.385-10.463-487.154 50.345-46.905 21.84-62.371 42.38 15.404 40.7 129.09-2.83 197.325-10.16 328.65 15.76 31.291 6.43 61.125 13.92 89.565 22.39h-23.565c-61.545-17.1-130.125-28.31-208.68-32.7-100.59-4.82-143.371 5.29-235.111 11.64-106.785 7.37-13.169-47.83 24.961-63.357 145.319-59.205 321.044-53.476 489.36-51.865 125.325 1.174 140.94-13.373 223.263-63.246 10.32-6.233 20.28-12.472 30.33-18.816 89.55-57.324 62.71-92.061 4.03-155.655C947.031 595.593 854.331 540.51 888.262 403.247c29.01-110.84 140.518-166.434 209.458-260.144 33.05-44.931 47.81-94.055 45.44-143.102Zm96.13 0h32.61c.36 20.855-1.45 43.4-5.71 68.373-9.75 57.206-31.77 108.724-78.41 160.125-128.95 137.184-176.49 218.186-45.1 362.074 47.68 52.187 159.9 162.28 124.98 220.691-24.81 41.488-157.53 87.201-219.42 116.058-88.308 41.918-90.122 49.246-211.412 43.208-99.391-4.979-296.581-18.072-382.456 16.269-51.359 20.591 71.671 28.311 94.666 31.211 111.03 14.51 196.906 34.07 275.385 61.99h-29.07c-43.62-14.71-91.575-27.14-148.665-38.27-79.456-14.9-136.89-17.72-219.419-22.9-136.261-8.63 22.379-44.267 68.1-50.848 140.579-20.116 237.689-4.396 372.135-3.729 99.329.472 132.495-28.973 202.826-61.436 32.63-15.014 63.5-29.362 94.58-45.396 98.08-51.562 71.52-93.475 23.35-156.284-23.07-30.147-50.61-59.125-78.48-87.902-99.25-101.745-132.777-181.491-52.2-293.465 72.62-96.724 125.52-101.744 164.97-221.286 11.58-35.323 17.09-67.786 16.74-98.483Zm97.16 0h33.39c2.29 21.72 2.79 45.241 1.39 71.9-6.61 91.474-11.85 148.284-76.32 233.834-102.88 136.443-88.38 161.883 9.48 298.17 37.98 53.438 117.38 165.101 72.06 220.303-35.11 42.778-181.98 82.139-252.94 110.523-145.532 59.442-92.63 69.089-287.716 56.927-40.65-2.547-216.015-13.601-95.146 25.102 72.975 23.36 125.325 40.85 181.365 63.24h-34.65c-74.294-28.66-140.1-45.4-247.305-71.36-130.41-31.56 68.115-32.15 106.725-30.7 78.136 2.902 194.19 20.975 262.217-4.628 27.25-10.23 66.57-31.754 97.65-44.773 14.01-5.88 28.08-11.407 42.45-16.976 200.04-76.373 253.36-86.218 160.09-232.107-22.93-35.91-50.8-71.271-78.06-106.244-128.88-165.225-37.57-198.746 57.86-350.163 27.46-43.6 42.16-118.016 46.9-164.866 1.61-21.212 1.74-40.384.56-58.182Zm96.82 0h31.43c9.28 30.539 18.19 61.397 27.6 93.506 32.49 109.155 70.41 146.752-27.53 250.378-86.22 91.235-89.14 122.009-38.76 222.969 31.44 63.081 110.7 208.657 64.13 269.117-40.07 52.067-189.72 79.784-276.71 110.017-64.83 23.127-120.31 52.223-166.66 86.682-20.42 20.46-1.38 35.1 25.66 47.33h-66.93c-12.537-5.61-25.287-11.49-38.052-17.76-15.33-7.49-44.88-20.43-44.805-32.43 7.514-8 76.034-3.96 124.407-27.01 9.77-4.669 18.54-9.884 27.47-15.023 95.77-53.165 190.35-68.927 294.69-107.191 125.67-46.105 104.62-106.091 76.39-178.081-19.09-48.692-47.53-97.622-73.74-145.296-66.99-121.895-36.94-140.321 51.93-248.768 56.25-68.612 31.58-137.502 24.33-210.386-3.49-36.895-8.37-68.573-14.85-98.054Zm88.59 0h28.02c29.9 55.474 57.71 72.099 142.68 130.713 104.4 74.337 51.23 114.523-5.79 193.331-66.99 92.727-143.31 105.781-120.37 219.363 14.35 71.001 39.93 132.165 47.95 205.917 11.49 119.657-12.54 139.261-202.83 195.758-142.96 42.425-151.89 71.827-126.3 134.917h-54.51c-6.9-8.75-14.14-17.69-21.81-26.98-40.08-48.38 22.16-74.771 91.59-98.88 202.13-70.253 306.41-52.928 270.65-219.209l-3.27-15.246c-12.42-57.755-34.52-116.174-51.45-173.728-30.18-104.133 5.65-116.723 86.64-201.252 32.28-33.717 42.79-58.81 59.17-95.548 38.27-99.229-64.26-116.401-114.58-199.837-9.35-15.524-17.91-32.151-25.79-49.319Zm86.01 0h33.59c68.52 59.552 199.71 79 278.53 120.559v153.731c-25.23 25.362-54.22 49.399-74.23 69.944-47.33 49.048-115.7 126.716-125.4 182.472-9.68 55.711 9.07 136.007 12.63 195.246 2.16 38.274 12.96 110.213-12.77 143.541-60.28 78.097-232.51 137.416-279.78 214.506h-58.05c6.41-24.63 21.26-47.21 47.6-64.93 39.79-26.779 114.66-59.011 163.66-87.672 50.12-29.328 93.89-56.497 98.15-98.563 2.37-23.878 1.59-48.418.69-72.38-3.42-70.96-20.91-140.121-25.37-209.477-5.1-77.747 51.72-123.23 110.25-189.722 25.67-29.132 53.96-57.793 81.63-86.341C2009.35 110.171 1711.1 119.07 1607.87.001Zm121.35 0h74.3c37.57 9.524 77.5 16.151 116.47 22.774v28.431c-71.92-15.414-134.86-25.803-190.77-51.205Zm190.77 374.385v54.694c-81.48 108.171-57.3 187.099-57.51 311.657.08 32.149 8.93 90.922-10.93 118.755-30.26 42.502-146.45 117.313-197.27 162.518-20.28 18.04-39.16 37.6-54.63 57.99h-49.08c63.99-81.32 175.86-132.842 242.49-204.316 32.84-35.166 23.15-61.119 23.22-98.995v-7.803c.54-67.79-5.44-139.187-2.16-206.146 3.48-70.93 48.44-130.678 105.87-188.354Zm0 505.578v37.993c-32.68 22.343-68.79 43.36-94.38 61.67-38.74 27.763-78.76 63.003-103.99 100.373h-41.33c12.69-18.86 28.58-37.06 46.14-53.68 55.97-52.887 123.59-88.527 181.92-136.207 4.32-3.483 8.16-6.858 11.64-10.149Zm0 94.846v35.2c-29.76 22.31-54.85 46.15-68.37 69.99h-47.82c22.79-36.94 67.4-73.87 116.19-105.19ZM666.068 1080h-30.6c-72.15-13.06-150.42-16.59-235.17-8.9-25.169 2.51-45.945 5.49-64.47 8.9h-51.375c3.135-.71 5.925-1.34 8.22-1.81 135.224-25.6 261.449-22.62 373.395 1.81ZM0 652.758V491.42c7.605-30.62 9.893-60.302 3.135-102.956A3328.022 3328.022 0 0 1 0 368.233V162.314c39.368 69.396 56.528 102.097 56.797 180.705.285 71.591 18.196 102.215-6.404 177.258C39.728 552.7 26.482 585.2 14.212 617.511A993.98 993.98 0 0 1 0 652.758Z" clip-rule="evenodd"/></g></svg>