<svg width="1256" height="1108" viewBox="0 0 1256 1108" fill="none" xmlns="http://www.w3.org/2000/svg">
<g opacity="0.09">
<line y1="1085.17" x2="1069.56" y2="1085.17" stroke="#222020" stroke-width="0.892045"/>
<line y1="628.446" x2="1069.56" y2="628.446" stroke="#222020" stroke-width="0.892045"/>
<line y1="856.81" x2="1069.56" y2="856.81" stroke="#222020" stroke-width="0.892045"/>
<line y1="400.083" x2="1069.56" y2="400.083" stroke="#222020" stroke-width="0.892045"/>
<line y1="171.718" x2="1069.56" y2="171.718" stroke="#222020" stroke-width="0.892045"/>
<line y1="970.992" x2="1069.56" y2="970.992" stroke="#222020" stroke-width="0.892045"/>
<line y1="514.264" x2="1069.56" y2="514.264" stroke="#222020" stroke-width="0.892045"/>
<line y1="742.627" x2="1069.56" y2="742.627" stroke="#222020" stroke-width="0.892045"/>
<line y1="285.901" x2="1069.56" y2="285.901" stroke="#222020" stroke-width="0.892045"/>
<line y1="57.5374" x2="1069.56" y2="57.5374" stroke="#222020" stroke-width="0.892045"/>
<line y1="1028.08" x2="1069.56" y2="1028.08" stroke="#222020" stroke-width="0.892045"/>
<line y1="571.355" x2="1069.56" y2="571.355" stroke="#222020" stroke-width="0.892045"/>
<line y1="799.719" x2="1069.56" y2="799.719" stroke="#222020" stroke-width="0.892045"/>
<line y1="342.992" x2="1069.56" y2="342.992" stroke="#222020" stroke-width="0.892045"/>
<line y1="114.629" x2="1069.56" y2="114.629" stroke="#222020" stroke-width="0.892045"/>
<line y1="913.901" x2="1069.56" y2="913.901" stroke="#222020" stroke-width="0.892045"/>
<line y1="457.173" x2="1069.56" y2="457.173" stroke="#222020" stroke-width="0.892045"/>
<line y1="685.538" x2="1069.56" y2="685.538" stroke="#222020" stroke-width="0.892045"/>
<line y1="228.81" x2="1069.56" y2="228.81" stroke="#222020" stroke-width="0.892045"/>
<line y1="0.446067" x2="1069.56" y2="0.446067" stroke="#222020" stroke-width="0.892045"/>
<line x1="33.451" y1="151.648" x2="33.451" y2="977.682" stroke="#222020" stroke-width="0.892045"/>
<line x1="490.181" y1="151.648" x2="490.181" y2="977.682" stroke="#222020" stroke-width="0.892045"/>
<line x1="261.816" y1="151.648" x2="261.816" y2="977.682" stroke="#222020" stroke-width="0.892045"/>
<line x1="718.543" y1="151.648" x2="718.543" y2="977.682" stroke="#222020" stroke-width="0.892045"/>
<line x1="946.908" y1="151.648" x2="946.908" y2="977.682" stroke="#222020" stroke-width="0.892045"/>
<line x1="147.634" y1="151.648" x2="147.633" y2="977.682" stroke="#222020" stroke-width="0.892045"/>
<line x1="604.36" y1="151.648" x2="604.36" y2="977.682" stroke="#222020" stroke-width="0.892045"/>
<line x1="375.998" y1="151.648" x2="375.998" y2="977.682" stroke="#222020" stroke-width="0.892045"/>
<line x1="832.725" y1="151.648" x2="832.725" y2="977.682" stroke="#222020" stroke-width="0.892045"/>
<line x1="1061.09" y1="151.648" x2="1061.09" y2="977.682" stroke="#222020" stroke-width="0.892045"/>
<line x1="90.5439" y1="151.648" x2="90.5439" y2="977.682" stroke="#222020" stroke-width="0.892045"/>
<line x1="547.271" y1="151.648" x2="547.271" y2="977.682" stroke="#222020" stroke-width="0.892045"/>
<line x1="318.906" y1="151.648" x2="318.906" y2="977.682" stroke="#222020" stroke-width="0.892045"/>
<line x1="775.635" y1="151.648" x2="775.635" y2="977.682" stroke="#222020" stroke-width="0.892045"/>
<line x1="1004" y1="151.648" x2="1004" y2="977.682" stroke="#222020" stroke-width="0.892045"/>
<line x1="204.726" y1="151.648" x2="204.726" y2="977.682" stroke="#222020" stroke-width="0.892045"/>
<line x1="661.453" y1="151.648" x2="661.453" y2="977.682" stroke="#222020" stroke-width="0.892045"/>
<line x1="433.088" y1="151.648" x2="433.088" y2="977.682" stroke="#222020" stroke-width="0.892045"/>
<line x1="889.815" y1="151.648" x2="889.815" y2="977.682" stroke="#222020" stroke-width="0.892045"/>
<line x1="1118.18" y1="151.648" x2="1118.18" y2="977.682" stroke="#222020" stroke-width="0.892045"/>
</g>
<g opacity="0.5">
<rect x="604.402" y="742.587" width="56.7665" height="56.7665" fill="white" fill-opacity="0.5"/>
<rect x="318.947" y="742.587" width="56.7665" height="56.7665" fill="white" fill-opacity="0.2"/>
<rect x="833.09" y="343.599" width="56.7665" height="55.9556" fill="white" fill-opacity="0.25"/>
<rect x="375.715" y="514.674" width="56.7665" height="55.9556" fill="white" fill-opacity="0.15"/>
<rect x="775.513" y="400.366" width="56.7665" height="55.9556" fill="white" fill-opacity="0.25"/>
<rect x="318.844" y="343.599" width="56.7665" height="55.9556" fill="white" fill-opacity="0.15"/>
<rect x="775.513" y="343.599" width="56.7665" height="55.9556" fill="white" fill-opacity="0.25"/>
<rect x="318.844" y="514.674" width="56.7665" height="55.9556" fill="white" fill-opacity="0.15"/>
<rect x="262.181" y="742.587" width="56.7665" height="56.7665" fill="white" fill-opacity="0.2"/>
<rect x="262.181" y="799.354" width="56.7665" height="57.5775" fill="white" fill-opacity="0.2"/>
<rect x="147.837" y="685.821" width="56.7665" height="56.7665" fill="white" fill-opacity="0.2"/>
<rect x="718.746" y="229.255" width="56.7665" height="56.7665" fill="white" fill-opacity="0.15"/>
<rect x="661.359" y="172.163" width="56.7665" height="56.2571" fill="white" fill-opacity="0.15"/>
<rect x="661.359" y="228.952" width="56.7665" height="56.6266" fill="white" fill-opacity="0.15"/>
<rect x="147.837" y="285.211" width="57.5775" height="58.3884" fill="white" fill-opacity="0.2"/>
<rect x="90.2595" y="228.445" width="57.5775" height="56.7665" fill="white" fill-opacity="0.2"/>
<rect x="33.4929" y="229.256" width="57.5775" height="56.7665" fill="white" fill-opacity="0.2"/>
<rect x="90.2595" y="285.211" width="57.5775" height="58.3884" fill="white" fill-opacity="0.2"/>
<rect x="318.947" y="171.678" width="57.5775" height="56.7665" fill="white" fill-opacity="0.25"/>
<rect x="147.837" y="399.555" width="56.7665" height="57.5775" fill="white" fill-opacity="0.2"/>
<rect x="833.09" y="685.821" width="56.7665" height="56.7665" fill="white" fill-opacity="0.15"/>
<rect x="889.857" y="742.587" width="56.7665" height="56.7665" fill="white" fill-opacity="0.15"/>
</g>
</svg>
