<svg width="180" height="47" viewBox="0 0 180 47" fill="none" xmlns="http://www.w3.org/2000/svg">
<path d="M59.5789 0C62.7573 11.9126 65.6197 24.0051 68.7439 35.9248C69.3316 27.7127 70.3698 19.3783 71.0544 11.1484C73.2688 11.1032 75.6523 11.1499 77.8796 11.1543L77.8591 14.458C78.0905 14.2134 78.325 13.9719 78.5623 13.7344C82.863 9.43774 90.3396 9.5386 94.4646 14.0273C102.051 22.2862 96.0588 38.184 83.9519 37.0205C80.7483 36.7125 78.7079 36.1431 76.4695 33.6729C76.0885 37.8154 75.7065 42.6319 75.1355 46.7266C72.8787 46.7648 69.8289 46.8227 67.6238 46.668C67.7814 44.7444 67.9689 42.823 68.1863 40.9053C68.2492 40.327 68.2883 40.1135 68.197 39.5205C67.6444 39.0928 60.5121 39.3264 59.2722 39.3398C58.6983 36.9721 58.1401 34.6006 57.5974 32.2256C53.4407 32.088 48.4668 32.162 44.2859 32.2246C43.2474 34.4508 42.2245 37.0364 41.2683 39.3252L30.5564 39.2939C31.043 38.0666 32.5625 34.1498 33.1755 33.1484C40.4801 31.1756 46.0026 28.6276 51.6736 23.4004C52.7572 25.0705 53.9683 26.7788 55.0984 28.4268C56.8697 23.3059 58.41 17.5571 60.0261 12.3311C54.6797 12.1552 49.1074 12.2951 43.7498 12.333C44.7864 13.8958 45.917 15.3892 46.9666 16.9941C44.2853 20.4308 40.291 23.0901 36.407 24.9688C37.108 22.6983 39.452 17.3217 40.4871 14.8701C42.4788 10.1521 44.5124 4.58117 46.6365 0.0146484L59.5789 0ZM84.2136 16.6338C82.0459 16.825 80.4816 17.3699 79.0417 19.1055C77.5535 20.9226 76.8479 23.2572 77.0808 25.5947C77.4318 29.0358 79.7389 30.9522 83.1003 31.168C92.2893 30.37 92.613 16.9513 84.2136 16.6338Z" fill="#0361F7"/>
<path d="M16.6112 7.10898C28.6832 5.6802 36.2561 14.123 33.6005 26.0729C24.5869 28.8311 14.8531 27.9625 6.4696 23.6529C10.4975 28.4685 14.364 31.4312 20.4139 33.1227C23.6343 34.0354 26.4952 33.8596 29.7743 33.7164C21.5935 42.2722 1.76893 40.4 0.116083 26.275C-0.407887 21.8606 0.855828 17.4192 3.62585 13.943C6.91968 9.82492 11.4516 7.69022 16.6112 7.10898ZM24.5057 19.6715C24.5233 15.2392 21.051 13.9153 17.1493 14.2633C13.7602 15.0366 12.1503 16.3987 10.9393 19.6578L19.0458 19.6832L24.5057 19.6715Z" fill="#0361F7"/>
<path d="M115.625 10.5977C132.749 10.6403 130.359 37.9677 113.889 37.0859C110.659 36.913 108.445 36.2091 106.207 33.8135C105.822 36.4395 105.597 39.5032 105.315 42.1836C105.156 43.7128 104.981 45.2409 104.792 46.7666L97.2705 46.7471C98.3706 34.9244 99.731 23.0644 100.729 11.2285C102.696 11.0958 105.475 11.1807 107.487 11.1953V14.4492C109.863 11.8806 111.598 10.9519 115.043 10.6279C115.236 10.6076 115.43 10.5978 115.625 10.5977ZM113.636 31.1338C122.719 29.0318 121.446 15.6684 112.909 16.7568C104.086 18.4966 104.917 32.3002 113.636 31.1338Z" fill="#0361F7"/>
<path d="M138.551 11.7206L146.656 11.7382C148.15 15.9867 149.596 22.0334 150.996 26.5303C151.641 25.4084 152.751 22.7522 153.331 21.4634L157.698 11.7862C158.899 11.7733 165.134 11.5538 165.758 11.9717C165.897 12.8063 163.641 16.9698 163.147 17.9776L157.944 28.6341L152.643 39.5503C151.972 40.9414 150.073 45.1654 149.202 46.1758C147.982 46.6954 142.278 46.3956 140.542 46.3698C142.326 42.6804 144.226 39.0201 145.963 35.3163C144.381 30.2075 142.749 25.1136 141.072 20.0353C140.375 17.8946 138.927 13.7665 138.551 11.7206Z" fill="#0361F7"/>
<path d="M134.583 0.0898224C136.007 0.0507024 137.432 0.0581676 138.856 0.112238C138.832 1.75458 138.64 3.88191 138.424 5.52499C137.098 15.6003 136.762 26.1256 135.309 36.1429C134.43 36.2062 133.156 36.1621 132.248 36.1577C130.739 36.1722 129.229 36.1508 127.721 36.0933C127.981 32.4945 128.467 28.7281 128.829 25.1257L131.275 0.155183L134.583 0.0898224Z" fill="#0361F7"/>
</svg>